<?xml version="1.0" encoding="UTF-8" standalone="no"?>
<!-- Created with Inkscape (http://www.inkscape.org/) -->

<svg
   width="16cm"
   height="16cm"
   viewBox="0 0 160 160"
   version="1.1"
   id="svg1"
   xml:space="preserve"
   inkscape:version="1.3 (0e150ed6c4, 2023-07-21)"
   sodipodi:docname="chair.svg"
   inkscape:export-filename="chair.svg.png"
   inkscape:export-xdpi="96"
   inkscape:export-ydpi="96"
   xmlns:inkscape="http://www.inkscape.org/namespaces/inkscape"
   xmlns:sodipodi="http://sodipodi.sourceforge.net/DTD/sodipodi-0.dtd"
   xmlns="http://www.w3.org/2000/svg"
   xmlns:svg="http://www.w3.org/2000/svg"><sodipodi:namedview
     id="namedview1"
     pagecolor="#ffffff"
     bordercolor="#000000"
     borderopacity="0.25"
     inkscape:showpageshadow="2"
     inkscape:pageopacity="0.0"
     inkscape:pagecheckerboard="0"
     inkscape:deskcolor="#d1d1d1"
     inkscape:document-units="mm"
     inkscape:zoom="0.72693603"
     inkscape:cx="114.86568"
     inkscape:cy="262.74664"
     inkscape:window-width="1920"
     inkscape:window-height="1048"
     inkscape:window-x="1920"
     inkscape:window-y="-5"
     inkscape:window-maximized="1"
     inkscape:current-layer="layer1" /><defs
     id="defs1" /><g
     inkscape:label="Layer 1"
     inkscape:groupmode="layer"
     id="layer1"><path
       style="font-variation-settings:normal;vector-effect:none;fill:#1a1a1a;fill-opacity:1;stroke:none;stroke-width:0.423999;stroke-linecap:butt;stroke-linejoin:miter;stroke-miterlimit:4;stroke-dasharray:none;stroke-dashoffset:0;stroke-opacity:1;-inkscape-stroke:none;stop-color:#000000"
       d="m 115.8528,64.047727 c -0.3608,-3.729303 -1.46375,-6.883656 -5.87875,-7.472133 l -49.607215,3.823497 0.07629,3.049807 48.812555,-3.737768 c 3.2622,0.3208 3.60106,2.674707 4.62206,4.554197 z"
       id="path29-7"
       sodipodi:nodetypes="ccccccc" /><path
       id="path26"
       style="font-variation-settings:normal;opacity:1;vector-effect:none;fill:#e6e6e6;fill-opacity:1;stroke:none;stroke-width:0.423999;stroke-linecap:butt;stroke-linejoin:miter;stroke-miterlimit:4;stroke-dasharray:none;stroke-dashoffset:0;stroke-opacity:1;-inkscape-stroke:none;stop-color:#000000;stop-opacity:1"
       d="M 56.469895,47.171573 54.618676,62.904926 36.657447,150.20092 c -0.06335,4.03061 -1.75003,9.58625 7.175374,9.12094 l 68.789399,0.49981 3.3354,-0.62214 c 4.56109,-0.63814 6.01511,-3.83283 6.43968,-7.87429 l -7.18578,-84.01176 c -0.14406,-5.162545 -2.52714,-7.088291 -6.58282,-6.59803 l -47.408017,3.069909 -3.867167,-0.870035 2.219063,-15.439881 z m 52.090035,15.62381 c 2.50671,0.529966 4.05629,2.010669 4.16864,4.920324 l 4.64684,49.669443 2.53814,35.35309 c -0.21928,1.32026 -1.2534,2.93207 -2.77644,3.5657 l -4.41973,0.93081 -70.223993,-0.55897 c -1.763746,-0.26497 -3.190503,-1.02492 -3.667252,-3.18025 L 56.613839,66.308293 Z" /><path
       style="font-variation-settings:normal;opacity:1;vector-effect:none;fill:#333333;fill-opacity:1;stroke:none;stroke-width:0.423999;stroke-linecap:butt;stroke-linejoin:miter;stroke-miterlimit:4;stroke-dasharray:none;stroke-dashoffset:0;stroke-opacity:1;-inkscape-stroke:none;stop-color:#000000;stop-opacity:1"
       d="M 43.998086,159.33817 43.564924,160 h -7.031587 v -5.52571 l 1.232034,0.46573 c 1.46913,3.02082 3.597958,3.28067 5.749164,3.44689 z"
       id="path27"
       sodipodi:nodetypes="ccccccc" /><path
       style="font-variation-settings:normal;opacity:1;vector-effect:none;fill:#333333;fill-opacity:1;stroke:none;stroke-width:0.423999;stroke-linecap:butt;stroke-linejoin:miter;stroke-miterlimit:4;stroke-dasharray:none;stroke-dashoffset:0;stroke-opacity:1;-inkscape-stroke:none;stop-color:#000000;stop-opacity:1"
       d="M 122.21069,152.66177 122.30735,160 h -5.19908 l -1.57494,-0.58425 1.51381,-1.38117 c 1.99941,-0.22321 3.46694,-1.84496 4.62916,-4.2694 z"
       id="path28"
       sodipodi:nodetypes="ccccccc" /><path
       style="font-variation-settings:normal;opacity:1;vector-effect:none;fill:#333333;fill-opacity:1;stroke:none;stroke-width:0.423999;stroke-linecap:butt;stroke-linejoin:miter;stroke-miterlimit:4;stroke-dasharray:none;stroke-dashoffset:0;stroke-opacity:1;-inkscape-stroke:none;stop-color:#000000;stop-opacity:1"
       d="m 116.50454,66.939527 c -0.36079,-3.729307 -1.46373,-6.883658 -5.87874,-7.472134 l -49.607214,3.823496 0.0763,3.049807 48.812564,-3.737769 c 3.26221,0.320799 3.60107,2.674707 4.62208,4.554199 z"
       id="path29"
       sodipodi:nodetypes="ccccccc" /><path
       style="font-variation-settings:normal;opacity:1;vector-effect:none;fill:#333333;fill-opacity:1;stroke:none;stroke-width:0.423999;stroke-linecap:butt;stroke-linejoin:miter;stroke-miterlimit:4;stroke-dasharray:none;stroke-dashoffset:0;stroke-opacity:1;-inkscape-stroke:none;stop-color:#000000;stop-opacity:1"
       d="M 59.041993,58.84071 60.343809,47.418359 C 59.457543,47.114613 58.574804,46.803188 58.677306,44.34698 L 58.313999,36.514093 C 56.311702,26.732726 53.820634,17.215108 49.307776,8.7884644 52.396719,21.166548 57.575282,33.657762 55.454064,45.753806 l -0.514183,6.476538 -0.769196,6.352329 c 1.580178,0.65791 3.183993,1.005667 4.871308,0.258037 z"
       id="path30"
       sodipodi:nodetypes="ccccccccc" /><path
       style="font-variation-settings:normal;opacity:1;vector-effect:none;fill:#1a1a1a;fill-opacity:1;stroke:none;stroke-width:0.423999;stroke-linecap:butt;stroke-linejoin:miter;stroke-miterlimit:4;stroke-dasharray:none;stroke-dashoffset:0;stroke-opacity:1;-inkscape-stroke:none;stop-color:#000000;stop-opacity:1"
       d="M 49.412835,8.8415664 38.332012,0 c 6.189391,14.458557 11.847845,38.057605 7.826263,45.978046 1.550996,6.377581 4.505144,9.903458 8.163529,11.903187 L 55.66419,46.20408 C 58.007867,40.997604 54.125818,21.595884 49.412835,8.8415664 Z"
       id="path31"
       sodipodi:nodetypes="cccccc" /></g></svg>
